Coordinates
version=1
nRows=12
nColumns=24
inDegrees=yes

Units are S.I. units (second, meters, Newtons, ...)
Angles are in degrees.

endheader
time	pelvis_tilt	pelvis_list	pelvis_rotation	pelvis_tx	pelvis_ty	pelvis_tz	hip_flexion_r	hip_adduction_r	hip_rotation_r	knee_angle_r	ankle_angle_r	subtalar_angle_r	mtp_angle_r	hip_flexion_l	hip_adduction_l	hip_rotation_l	knee_angle_l	ankle_angle_l	subtalar_angle_l	mtp_angle_l	lumbar_extension	lumbar_bending	lumbar_rotation
      2.56500000	     -1.47624221	      3.64657054	      3.83021878	     -1.55908984	      0.91397735	      0.19744911	     31.03680623	     -0.89639446	     -0.18230841	    -15.58525314	      9.16393750	     -6.75855968	      0.00000000	    -12.49713118	      9.27689861	      7.32216688	    -17.72505498	     26.15064835	     -6.58632435	      0.00000000	    -11.33711615	     -5.22719419	    -15.76850187
      2.57000000	     -1.44351819	      3.36892709	      3.86871201	     -1.55155340	      0.91336443	      0.19765333	     30.97972270	     -0.46772999	      0.19272894	    -16.29601878	      8.51312794	     -7.31864411	      0.00000000	    -12.41611242	      8.86675122	      6.58983908	    -18.80335873	     26.15825917	     -5.71111522	      0.00000000	    -11.29964773	     -4.84418972	    -15.75941237
      2.57500000	     -1.44438847	      3.07835489	      3.83078699	     -1.54405068	      0.91278062	      0.19803954	     30.94967813	      0.02272150	      0.69898934	    -16.96754346	      7.71823833	     -8.00911437	      0.00000000	    -12.21274512	      8.42811400	      5.64530845	    -20.01258344	     26.11626195	     -4.69335710	      0.00000000	    -11.22142226	     -4.46854420	    -15.65569849
      2.58000000	     -1.47090249	      2.73342874	      3.81233183	     -1.53655548	      0.91229369	      0.19839917	     30.94083904	      0.54203119	      1.09652043	    -17.62021134	      6.86631599	     -8.67521887	      0.00000000	    -11.91529431	      7.91410012	      4.72084698	    -21.33044967	     25.98102688	     -3.67141034	      0.00000000	    -11.11035869	     -4.02554745	    -15.56328581
      2.58500000	     -1.50587633	      2.36878479	      3.78232365	     -1.52911551	      0.91187460	      0.19881832	     30.95549895	      1.08346334	      1.47901907	    -18.29097485	      6.01209857	     -9.36767280	      0.00000000	    -11.52782271	      7.35524082	      3.73760736	    -22.77547192	     25.75496361	     -2.62732340	      0.00000000	    -10.99760073	     -3.56734629	    -15.44279502
      2.59000000	     -1.55146045	      1.99731136	      3.72168614	     -1.52173934	      0.91156456	      0.19929304	     30.99015075	      1.64202444	      1.88023370	    -18.96866939	      5.10578996	    -10.08968432	      0.00000000	    -11.06581556	      6.77351126	      2.75825002	    -24.31399772	     25.37452155	     -1.58446404	      0.00000000	    -10.88132108	     -3.10818230	    -15.31965567
      2.59500000	     -1.62875668	      1.54145084	      3.71812023	     -1.51429859	      0.91129392	      0.19963259	     31.07481215	      2.22459719	      2.05464600	    -19.69161785	      4.31802101	    -10.69563436	      0.00000000	    -10.50216610	      6.08328779	      1.87536541	    -25.97056778	     24.89207136	     -0.59964178	      0.00000000	    -10.70885658	     -2.53371936	    -15.19753261
      2.60000000	     -1.71199317	      1.12566989	      3.66787157	     -1.50693450	      0.91111248	      0.20008554	     31.16440950	      2.80265700	      2.37308688	    -20.41536682	      3.48608676	    -11.42088808	      0.00000000	     -9.87202476	      5.41572529	      0.97994726	    -27.70948624	     24.20986308	      0.37719212	      0.00000000	    -10.54346800	     -2.02096041	    -15.06361086
      2.60500000	     -1.79859749	      0.67069293	      3.66239962	     -1.49954936	      0.91097477	      0.20043428	     31.27230228	      3.37163224	      2.52275113	    -21.18149648	      2.80273614	    -12.02879664	      0.00000000	     -9.17802568	      4.68793722	      0.19591813	    -29.54246860	     23.40127414	      1.29718979	      0.00000000	    -10.36829207	     -1.45188284	    -14.95213434
      2.61000000	     -1.87126267	      0.18690388	      3.67431871	     -1.49214706	      0.91088197	      0.20073077	     31.37440017	      3.93757490	      2.55146921	    -21.97513303	      2.26977921	    -12.50942011	      0.00000000	     -8.44710320	      3.91699457	     -0.49154725	    -31.44809112	     22.46002156	      2.15080827	      0.00000000	    -10.20451110	     -0.84283972	    -14.83130518
      2.61500000	     -1.94404475	     -0.27733329	      3.67879326	     -1.48476487	      0.91084010	      0.20103861	     31.45255192	      4.48444504	      2.60382776	    -22.73183166	      1.80091582	    -13.00896208	      0.00000000	     -7.66583450	      3.15502692	     -1.11580982	    -33.41194210	     21.34153199	      2.95327267	      0.00000000	    -10.04570453	     -0.26102901	    -14.72892973
      2.62000000	     -2.00015008	     -0.73956678	      3.68342962	     -1.47732210	      0.91087671	      0.20133312	     31.48204706	      5.01333928	      2.58610460	    -23.44416514	      1.47334763	    -13.41448690	      0.00000000	     -6.87305318	      2.38689369	     -1.66395529	    -35.39304635	     20.05005426	      3.68123036	      0.00000000	     -9.89446100	      0.31979386	    -14.62859606
